<svg xmlns="http://www.w3.org/2000/svg" width="464" height="128" viewBox="0 0 464 128" role="img" aria-label="convt"><title>convt</title><defs><linearGradient id="convt-g" x1="0" y1="0" x2="0" y2="1"><stop offset="0" stop-color="#2fbf78"/><stop offset="1" stop-color="#1f9a5c"/></linearGradient></defs><g transform="translate(0 0) scale(4)"><rect width="32" height="32" rx="8" fill="url(#convt-g)"/><path d="M8 12.5h14M18.5 9l3.5 3.5-3.5 3.5M24 19.5H10M13.5 16 10 19.5l3.5 3.5" stroke="#ffffff" fill="none" stroke-width="2.6" stroke-linecap="round" stroke-linejoin="round"/></g><g transform="translate(0 0)"><path transform="translate(155.3 96) scale(0.12)" fill="#0a0b0b" d="M301.8009033203125 12.0Q222.2005615234375 12.0 163.30029296875 -22.4000244140625Q104.4000244140625 -56.800048828125 71.79986572265625 -119.7000732421875Q39.19970703125 -182.60009765625 39.19970703125 -267.0001220703125Q39.19970703125 -351.400146484375 71.79986572265625 -413.8001708984375Q104.4000244140625 -476.2001953125 163.30029296875 -511.1002197265625Q222.2005615234375 -546.000244140625 301.8009033203125 -546.000244140625Q369.601318359375 -546.000244140625 422.90167236328125 -522.10009765625Q476.2020263671875 -498.199951171875 509.60223388671875 -453.39971923828125Q543.00244140625 -408.5994873046875 551.202392578125 -344.7991943359375L418.7996826171875 -337.9991455078125Q410.999755859375 -388.9990234375 379.60009765625 -415.4989013671875Q348.200439453125 -441.998779296875 301.8009033203125 -441.998779296875Q240.0015869140625 -441.998779296875 205.802001953125 -395.69915771484375Q171.6024169921875 -349.3995361328125 171.6024169921875 -267.0001220703125Q171.6024169921875 -184.20068359375 205.802001953125 -137.90106201171875Q240.0015869140625 -91.6014404296875 301.8009033203125 -91.6014404296875Q348.6004638671875 -91.6014404296875 380.20013427734375 -119.00128173828125Q411.7998046875 -146.401123046875 418.7996826171875 -202.8009033203125L551.202392578125 -196.8009033203125Q543.4024658203125 -133.0006103515625 510.40228271484375 -86.10040283203125Q477.402099609375 -39.2001953125 424.10174560546875 -13.60009765625Q370.8013916015625 12.0 301.8009033203125 12.0ZM841.8009033203125 12.0Q762.800537109375 12.0 703.6002807617188 -22.4000244140625Q644.4000244140625 -56.800048828125 611.7998657226562 -119.7000732421875Q579.19970703125 -182.60009765625 579.19970703125 -267.0001220703125Q579.19970703125 -352.0001220703125 611.7998657226562 -414.400146484375Q644.4000244140625 -476.8001708984375 703.6002807617188 -511.40020751953125Q762.800537109375 -546.000244140625 841.8009033203125 -546.000244140625Q920.80126953125 -546.000244140625 979.7015380859375 -511.40020751953125Q1038.601806640625 -476.8001708984375 1071.2019653320312 -414.400146484375Q1103.8021240234375 -352.0001220703125 1103.8021240234375 -267.0001220703125Q1103.8021240234375 -182.60009765625 1071.2019653320312 -119.7000732421875Q1038.601806640625 -56.800048828125 979.7015380859375 -22.4000244140625Q920.80126953125 12.0 841.8009033203125 12.0ZM841.8009033203125 -91.6014404296875Q903.6002197265625 -91.6014404296875 937.4998168945312 -137.90106201171875Q971.3994140625 -184.20068359375 971.3994140625 -267.0001220703125Q971.3994140625 -349.3995361328125 937.4998168945312 -395.899169921875Q903.6002197265625 -442.3988037109375 841.8009033203125 -442.3988037109375Q780.0015869140625 -442.3988037109375 745.802001953125 -395.899169921875Q711.6024169921875 -349.3995361328125 711.6024169921875 -267.0001220703125Q711.6024169921875 -184.20068359375 745.802001953125 -137.90106201171875Q780.0015869140625 -91.6014404296875 841.8009033203125 -91.6014404296875ZM1173.3994140625 0.0V-534.000244140625H1289.2017822265625L1294.201904296875 -384.1993408203125L1278.6015625 -390.399169921875Q1287.00146484375 -446.19970703125 1311.8014526367188 -480.2999267578125Q1336.6014404296875 -514.400146484375 1372.9014892578125 -530.2001953125Q1409.2015380859375 -546.000244140625 1452.20166015625 -546.000244140625Q1511.2015380859375 -546.000244140625 1551.5015869140625 -520.2003173828125Q1591.8016357421875 -494.400390625 1612.7017211914062 -448.900390625Q1633.601806640625 -403.400390625 1633.601806640625 -343.400146484375V0.0H1505.59912109375V-302.1990966796875Q1505.59912109375 -347.1988525390625 1496.8992919921875 -378.2987060546875Q1488.199462890625 -409.3985595703125 1467.7997436523438 -425.698486328125Q1447.4000244140625 -441.9984130859375 1413.0003662109375 -441.9984130859375Q1361.6009521484375 -441.9984130859375 1331.5015258789062 -406.09857177734375Q1301.402099609375 -370.19873046875 1301.402099609375 -302.1990966796875V0.0ZM1858.2000732421875 0.0 1663.199951171875 -534.000244140625H1798.402587890625L1934.4014892578125 -129.20263671875L2070.0003662109375 -534.000244140625H2205.2030029296875L2009.8028564453125 0.0ZM2457.6005859375 0.0Q2378.0001220703125 0.0 2340.4999389648438 -36.80023193359375Q2302.999755859375 -73.6004638671875 2302.999755859375 -152.801025390625V-659.2003173828125H2431.00244140625V-165.20166015625Q2431.00244140625 -127.6015625 2447.2024536132812 -113.40155029296875Q2463.4024658203125 -99.2015380859375 2496.802490234375 -99.2015380859375H2572.00244140625V0.0ZM2219.3994140625 -434.7987060546875V-534.000244140625H2572.00244140625V-434.7987060546875Z"/></g></svg>
